<svg xmlns="http://www.w3.org/2000/svg" version="1.1" xmlns:xlink="http://www.w3.org/1999/xlink" xmlns:svgjs="http://svgjs.com/svgjs" width="1440" height="560" preserveAspectRatio="none" viewBox="0 0 1440 560"><g mask="url(&quot;#SvgjsMask1007&quot;)" fill="none"><rect width="1440" height="560" x="0" y="0" fill="url(#SvgjsLinearGradient1008)"></rect><path d="M274 371L273 3" stroke-width="10" stroke="url(#SvgjsLinearGradient1009)" stroke-linecap="round" class="Up"></path><path d="M717 263L716 87" stroke-width="8" stroke="url(#SvgjsLinearGradient1010)" stroke-linecap="round" class="Down"></path><path d="M1064 394L1063 688" stroke-width="8" stroke="url(#SvgjsLinearGradient1010)" stroke-linecap="round" class="Down"></path><path d="M13 555L12 304" stroke-width="6" stroke="url(#SvgjsLinearGradient1010)" stroke-linecap="round" class="Down"></path><path d="M209 514L208 835" stroke-width="8" stroke="url(#SvgjsLinearGradient1009)" stroke-linecap="round" class="Up"></path><path d="M1021 415L1020 625" stroke-width="6" stroke="url(#SvgjsLinearGradient1009)" stroke-linecap="round" class="Up"></path><path d="M1403 114L1402 -105" stroke-width="6" stroke="url(#SvgjsLinearGradient1009)" stroke-linecap="round" class="Up"></path><path d="M795 461L794 249" stroke-width="10" stroke="url(#SvgjsLinearGradient1009)" stroke-linecap="round" class="Up"></path><path d="M1300 181L1299 -18" stroke-width="6" stroke="url(#SvgjsLinearGradient1010)" stroke-linecap="round" class="Down"></path><path d="M859 302L858 499" stroke-width="10" stroke="url(#SvgjsLinearGradient1009)" stroke-linecap="round" class="Up"></path><path d="M1424 76L1423 360" stroke-width="10" stroke="url(#SvgjsLinearGradient1010)" stroke-linecap="round" class="Down"></path><path d="M1086 509L1085 98" stroke-width="10" stroke="url(#SvgjsLinearGradient1009)" stroke-linecap="round" class="Up"></path><path d="M980 551L979 854" stroke-width="6" stroke="url(#SvgjsLinearGradient1010)" stroke-linecap="round" class="Down"></path><path d="M334 550L333 289" stroke-width="8" stroke="url(#SvgjsLinearGradient1010)" stroke-linecap="round" class="Down"></path><path d="M249 520L248 841" stroke-width="6" stroke="url(#SvgjsLinearGradient1009)" stroke-linecap="round" class="Up"></path><path d="M660 335L659 727" stroke-width="8" stroke="url(#SvgjsLinearGradient1010)" stroke-linecap="round" class="Down"></path><path d="M3 222L2 598" stroke-width="10" stroke="url(#SvgjsLinearGradient1009)" stroke-linecap="round" class="Up"></path><path d="M732 333L731 185" stroke-width="8" stroke="url(#SvgjsLinearGradient1009)" stroke-linecap="round" class="Up"></path><path d="M1178 34L1177 452" stroke-width="8" stroke="url(#SvgjsLinearGradient1010)" stroke-linecap="round" class="Down"></path><path d="M1160 150L1159 -82" stroke-width="10" stroke="url(#SvgjsLinearGradient1010)" stroke-linecap="round" class="Down"></path><path d="M456 533L455 302" stroke-width="6" stroke="url(#SvgjsLinearGradient1010)" stroke-linecap="round" class="Down"></path><path d="M555 360L554 -30" stroke-width="6" stroke="url(#SvgjsLinearGradient1009)" stroke-linecap="round" class="Up"></path><path d="M673 76L672 470" stroke-width="10" stroke="url(#SvgjsLinearGradient1010)" stroke-linecap="round" class="Down"></path><path d="M779 268L778 32" stroke-width="8" stroke="url(#SvgjsLinearGradient1010)" stroke-linecap="round" class="Down"></path><path d="M1227 397L1226 814" stroke-width="10" stroke="url(#SvgjsLinearGradient1010)" stroke-linecap="round" class="Down"></path><path d="M1412 414L1411 824" stroke-width="6" stroke="url(#SvgjsLinearGradient1010)" stroke-linecap="round" class="Down"></path><path d="M807 301L806 649" stroke-width="10" stroke="url(#SvgjsLinearGradient1009)" stroke-linecap="round" class="Up"></path><path d="M885 306L884 74" stroke-width="6" stroke="url(#SvgjsLinearGradient1009)" stroke-linecap="round" class="Up"></path><path d="M352 398L351 149" stroke-width="10" stroke="url(#SvgjsLinearGradient1009)" stroke-linecap="round" class="Up"></path><path d="M1072 22L1071 390" stroke-width="10" stroke="url(#SvgjsLinearGradient1009)" stroke-linecap="round" class="Up"></path><path d="M656 354L655 127" stroke-width="10" stroke="url(#SvgjsLinearGradient1009)" stroke-linecap="round" class="Up"></path><path d="M896 145L895 -206" stroke-width="6" stroke="url(#SvgjsLinearGradient1009)" stroke-linecap="round" class="Up"></path><path d="M872 502L871 268" stroke-width="6" stroke="url(#SvgjsLinearGradient1009)" stroke-linecap="round" class="Up"></path><path d="M237 557L236 336" stroke-width="6" stroke="url(#SvgjsLinearGradient1010)" stroke-linecap="round" class="Down"></path><path d="M242 145L241 -92" stroke-width="8" stroke="url(#SvgjsLinearGradient1010)" stroke-linecap="round" class="Down"></path><path d="M145 176L144 -23" stroke-width="10" stroke="url(#SvgjsLinearGradient1010)" stroke-linecap="round" class="Down"></path></g><defs><mask id="SvgjsMask1007"><rect width="1440" height="560" fill="#ffffff"></rect></mask><linearGradient x1="15.28%" y1="-39.29%" x2="84.72%" y2="139.29%" gradientUnits="userSpaceOnUse" id="SvgjsLinearGradient1008"><stop stop-color="#0e2a47" offset="0"></stop><stop stop-color="#00459e" offset="1"></stop></linearGradient><linearGradient x1="0%" y1="100%" x2="0%" y2="0%" id="SvgjsLinearGradient1009"><stop stop-color="rgba(28, 83, 142, 0)" offset="0"></stop><stop stop-color="#1c538e" offset="1"></stop></linearGradient><linearGradient x1="0%" y1="0%" x2="0%" y2="100%" id="SvgjsLinearGradient1010"><stop stop-color="rgba(28, 83, 142, 0)" offset="0"></stop><stop stop-color="#1c538e" offset="1"></stop></linearGradient></defs></svg>